<?xml version="1.0" encoding="utf-8"?>
<!-- Generator: Adobe Illustrator 22.0.1, SVG Export Plug-In . SVG Version: 6.00 Build 0)  -->
<svg version="1.1" id="Layer_1" xmlns="http://www.w3.org/2000/svg" xmlns:xlink="http://www.w3.org/1999/xlink" x="0px" y="0px"
	 viewBox="0 0 512 512" style="enable-background:new 0 0 512 512;" xml:space="preserve">
<style type="text/css">
	.st0{fill:#FC6A06;}
	.st1{fill:none;stroke:#FC6A06;stroke-width:4.6228;}
	.st2{fill:#1274FC;}
	.st3{fill:#1556B0;}
	.st4{fill:#443D39;}
	.st5{fill:#FFFFFF;}
	.st6{fill:#CE797B;}
	.st7{fill:#EA6A00;}
	.st8{fill:#DCE4E7;}
	.st9{fill:#BCA795;}
	.st10{fill:#A9454D;}
	.st11{fill:#CFD0D1;}
	.st12{fill:#5E5753;}
	.st13{fill:#C6C5C2;}
	.st14{fill:#AA6568;}
	.st15{fill:#B7BBBC;}
	.st16{fill:#E4E7EA;}
	.st17{fill:#913D48;}
	.st18{fill:#BC586E;}
	.st19{fill:#89471B;}
	.st20{opacity:0.18;fill:#FFFFFF;}
	.st21{fill:none;stroke:#000000;stroke-width:4.6228;}
</style>
<g>
	<g>
		<g>
			<path class="st0" d="M247,502.8c-62.5-32.1-110.5-76.5-142.6-132.1c-25.7-44.4-41.3-96-46.5-153.2c-4.6-50.7,0.1-96.6,4.8-126.2
				c5.1-32,11.5-52.7,11.6-52.9l1.4-4.6l4.9-0.2c75-3.4,167-25.4,167.9-25.6l1.6-0.4l1.6,0.4c0.9,0.2,92.7,22.2,167.8,25.6l4.9,0.2
				l1.5,4.6c0.1,0.2,6.4,20.8,11.6,52.9c4.7,29.6,9.4,75.5,4.9,126.2c-5.1,57.2-20.8,108.8-46.4,153.2
				c-32.1,55.6-80.1,100.1-142.6,132.1l-3.2,1.6L247,502.8z M86.2,47.2C81,66.1,64.3,135.3,71.7,216.5
				c7.8,85.8,45.1,202.5,178.4,272.4c133.4-70,170.7-186.7,178.4-272.6c7.3-81.1-9.4-150.2-14.6-169.1
				c-69.8-3.8-150.8-22.3-163.9-25.4C237.1,24.9,156,43.3,86.2,47.2z"/>
			<path d="M250.1,499.9l-1.3-0.7c-61.8-31.7-109.2-75.6-141-130.5c-25.4-43.9-40.9-94.9-46-151.5c-4.5-50.3,0.1-95.9,4.8-125.2
				c5.1-31.8,11.4-52.1,11.4-52.3l0.6-1.9l2-0.1c75.5-3.4,167.7-25.5,168.7-25.7l0.7-0.2l0.7,0.2c0.9,0.2,93.1,22.3,168.6,25.7
				l2,0.1l0.6,1.9c0.1,0.2,6.3,20.5,11.4,52.3c4.7,29.4,9.4,74.9,4.9,125.2c-5.1,56.6-20.5,107.6-45.9,151.5
				c-31.7,54.9-79.2,98.8-140.9,130.5L250.1,499.9z M83.1,43.3C79.4,56,59.8,129.9,67.7,216.8c7.9,87.3,46,205.9,182.5,276.6
				C386.7,422.7,424.7,304,432.6,216.6c7.8-86.9-11.8-160.6-15.5-173.4c-72.2-3.6-158.4-23.6-167-25.6
				C241.6,19.7,155.3,39.7,83.1,43.3z"/>
		</g>
		<g>
			<path class="st1" d="M247,502.8c-62.5-32.1-110.5-76.5-142.6-132.1c-25.7-44.4-41.3-96-46.5-153.2c-4.6-50.7,0.1-96.6,4.8-126.2
				c5.1-32,11.5-52.7,11.6-52.9l1.4-4.6l4.9-0.2c75-3.4,167-25.4,167.9-25.6l1.6-0.4l1.6,0.4c0.9,0.2,92.7,22.2,167.8,25.6l4.9,0.2
				l1.5,4.6c0.1,0.2,6.4,20.8,11.6,52.9c4.7,29.6,9.4,75.5,4.9,126.2c-5.1,57.2-20.8,108.8-46.4,153.2
				c-32.1,55.6-80.1,100.1-142.6,132.1l-3.2,1.6L247,502.8z M86.2,47.2C81,66.1,64.3,135.3,71.7,216.5
				c7.8,85.8,45.1,202.5,178.4,272.4c133.4-70,170.7-186.7,178.4-272.6c7.3-81.1-9.4-150.2-14.6-169.1
				c-69.8-3.8-150.8-22.3-163.9-25.4C237.1,24.9,156,43.3,86.2,47.2z"/>
			<path class="st1" d="M250.1,499.9l-1.3-0.7c-61.8-31.7-109.2-75.6-141-130.5c-25.4-43.9-40.9-94.9-46-151.5
				c-4.5-50.3,0.1-95.9,4.8-125.2c5.1-31.8,11.4-52.1,11.4-52.3l0.6-1.9l2-0.1c75.5-3.4,167.7-25.5,168.7-25.7l0.7-0.2l0.7,0.2
				c0.9,0.2,93.1,22.3,168.6,25.7l2,0.1l0.6,1.9c0.1,0.2,6.3,20.5,11.4,52.3c4.7,29.4,9.4,74.9,4.9,125.2
				c-5.1,56.6-20.5,107.6-45.9,151.5c-31.7,54.9-79.2,98.8-140.9,130.5L250.1,499.9z M83.1,43.3C79.4,56,59.8,129.9,67.7,216.8
				c7.9,87.3,46,205.9,182.5,276.6C386.7,422.7,424.7,304,432.6,216.6c7.8-86.9-11.8-160.6-15.5-173.4
				c-72.2-3.6-158.4-23.6-167-25.6C241.6,19.7,155.3,39.7,83.1,43.3z"/>
		</g>
	</g>
	<path class="st2" d="M78.7,39.9c0,0-23.9,92.3-9.6,197c13.2,96.8,58.6,204,180.9,257.1l7.2-1.9c0,0,81.8-27.8,144.5-147.7
		c0,0,63.9-157.3,16.5-304.5H410c0,0-107.9-9.4-158.1-24.7l-10,2.4C241.9,17.7,121.3,43,78.7,39.9z"/>
	<path class="st3" d="M250.1,12.7l-0.2,481.4c0,0,257.1-93.8,168.2-454.1l-25.4-1.3l-80.5-14.2l-47.4-5.7L250.1,12.7z"/>
	<g>
		<g>
			<path class="st2" d="M219.3,297.5c1.1,0,1.1-1.7,0-1.7C218.2,295.8,218.2,297.5,219.3,297.5L219.3,297.5z"/>
		</g>
	</g>
	<g>
		<path class="st0" d="M393.6,347.5c0-0.5-2.8-26.6-23.9-59.1c-9.9-15.3-15.8-36.8-17.4-64.1c-1.2-20.1,0.5-36,0.5-36.1l0.4-4
			l12.1,1.3l-0.4,4c-0.1,0.6-6.1,59.9,14.9,92.3c23.1,35.5,25.7,63.5,25.8,64.6l0.3,4l-12.1,1L393.6,347.5z"/>
		<path d="M397.6,347.1c0-0.3-2.6-27.1-24.5-60.9c-9.5-14.7-15.2-35.6-16.7-62.1c-1.2-19.7,0.5-35.3,0.5-35.4l4,0.4
			c-0.1,0.6-6.3,61.2,15.6,94.9c22.6,34.7,25.1,61.6,25.2,62.8L397.6,347.1z"/>
	</g>
	<g>
		<path class="st0" d="M288.8,352.9c-1.2,0-2.3-0.1-3.4-0.4c-5.3-1.1-9.8-4.9-13.3-11.2l-2.6-4.7l4.4-3.2c0.1-0.1,12.9-9.6,17.9-24
			c4.1-11.8-4.5-38.2-8.2-47.4l-0.1-0.2l-0.1-0.2l0-0.1c0-0.1-3.2-9.5-14.1-17.9c-8.5-6.6-24.4-14.5-51.3-14.5
			c-5.1,0-10.4,0.3-15.9,0.8l-4,0.4l-1.2-12.1l4-0.4c5.9-0.6,11.6-0.9,17.1-0.9c30.6,0,49,9.4,59,17.2
			c13.1,10.2,17.3,21.6,17.9,23.4c1.7,4.3,14.6,37.8,8.3,55.7c-4.2,12.1-12.3,21.1-17.6,25.9c0.8,0.7,1.5,1.1,2.3,1.3
			c0.3,0.1,0.6,0.1,0.9,0.1c3.4,0,8.2-3.6,12.1-6.4l1.2-0.9c7.2-5.2,14.3-19.2,22.6-35.4c1.5-3,3.1-6.2,4.8-9.4
			c11.1-21.2,28.1-39.8,28.2-40l2.7-3l8.9,8.2l-2.7,3c-0.2,0.2-16.1,17.6-26.4,37.3c-1.6,3.1-3.2,6.2-4.7,9.2l0,0.1
			c-9,17.5-16.7,32.7-26.2,39.6l-1.2,0.8C302.8,348.1,296.2,352.9,288.8,352.9z"/>
		<path d="M288.8,348.9c-0.9,0-1.7-0.1-2.6-0.3c-4.1-0.9-7.7-4-10.6-9.2l-0.9-1.6l1.5-1.1c0.1-0.1,13.9-10.2,19.4-25.9
			c5.5-15.7-8.1-49.9-8.3-50.2l-0.1-0.2c0-0.1-3.4-10.5-15.5-19.9c-11.2-8.7-32.5-18.3-70.1-14.5l-0.4-4
			c39.1-3.9,61.4,6.3,73.2,15.5c12.5,9.8,16.3,20.5,16.6,21.6c0.9,2.2,14.2,36.1,8.3,53c-4.9,14-15.5,23.6-19.4,26.7
			c2.1,3.3,4.4,5.2,7,5.7c5.2,1.1,11.1-3.2,16.3-7l1.2-0.9c7.9-5.8,15.3-20.2,23.8-36.8c1.5-3,3.2-6.2,4.8-9.3
			c10.8-20.8,27.5-38.9,27.6-39.1l3,2.7c-0.2,0.2-16.4,17.9-27,38.2c-1.6,3.2-3.2,6.3-4.8,9.3c-8.7,17.1-16.3,31.8-25,38.2l-1.2,0.9
			C300.8,344.5,294.9,348.9,288.8,348.9z"/>
	</g>
	<g>
		<path class="st0" d="M150.1,254.8c-3.8-0.1-23.2-4.6-38.9-8.4l-0.1,0l-0.4-0.1l-0.1,0c-10.2-3.5-18.7-7.6-25.2-12.1
			c-9.9-6.9-14.4-19.5-11.7-32.9c1.2-5.9,2.5-12,4-17c2.1-6.9,8-11.6,12.3-13.5c0.9-0.4,1.8-0.6,2.8-0.6c1.1,0,2.3,0.3,3.2,0.8
			c8.3,4.5,18.8,14.6,20.2,16c3.5,3.2,6.9,4.7,10.9,4.7c4.3,0,9.2-1.8,15.1-5.4c12.6-7.7,23.4-29.2,23.5-29.5l0.2-0.3l0-0.1
			c27.7-47.9,57.6-72,77.9-83.7c16.4-9.6,29.1-12.9,35.4-14c7.8-15,20.3-17.3,27.2-17.3c4.5,0,7.6,0.9,8.1,1.1l0,0
			c11.5,3.4,20.2,11.1,25.2,22.3c3.2,7.2,3.9,13.6,4.1,15.4c0.6,2.7,5.2,11.7,38.8,22.7c27.7,9,56.5,27,56.8,27.2l3.4,2.1l-6.4,10.3
			l-3.4-2.1c-0.3-0.2-28.1-17.5-54.1-26c-30.1-9.8-45.1-20.2-47.1-32.5l0-0.1l0-0.5l0-0.1c0-0.9-1.2-21.2-20.7-27
			c-0.1,0-2-0.6-4.7-0.6c-5.2,0-12.3,2.1-16.9,12.1l0.8,4.4l-6.4,0.3c-0.8,0.1-14.8,1.7-34.1,13.1c-18.9,11-46.9,33.7-73.1,79
			c-1.5,3-12.9,25-27.9,34.2c-7.8,4.8-14.9,7.2-21.6,7.2c-7,0-13.4-2.6-19.1-7.8l-0.2-0.2c-0.1-0.1-8.2-8.1-15-12.6
			c-1.3,1-2.9,2.6-3.5,4.7c-1.4,4.5-2.6,10.3-3.7,15.8c-1.7,8.5,0.9,16.4,6.7,20.5c5.5,3.9,12.9,7.4,21.9,10.5
			c8.8,2.1,23,5.4,30.9,7.1c2.5-4.5,8.2-8.3,17.3-11.6l0.5-0.2l0.5-0.1c0.1,0,8.9-1.5,17.9-3.8c14.3-3.5,17-5.8,17.1-5.9
			c0,0-0.4,0.3-0.6,1l7.8,1.4l0.1,3.5v3l-2.9,0.9c-1.7,0.5-3.9,1.5-6.7,2.7c-3.6,1.6-8,3.5-13.7,5.5l-0.6,0.3l-0.5,0
			c-8.2,1.9-13.8,2.9-15.2,3.2c-6,2.2-8.6,4.1-9.6,5.1l7.1,8.5L150.1,254.8z"/>
		<path d="M154.7,250.9l-4.5-0.2c-3.5,0-32.3-6.9-38-8.3l-0.2-0.1c-9.9-3.4-18-7.3-24.2-11.6c-8.6-6-12.4-17-10-28.7
			c1.2-5.8,2.4-11.8,3.9-16.6c1.8-6,7.2-9.7,10.1-11c0.8-0.4,1.7-0.3,2.5,0.1c8,4.3,18.6,14.7,19.3,15.4c8.5,7.8,18,7.7,30.9-0.3
			c13.6-8.4,24.9-30.9,25-31.1l0.1-0.1c27.2-47.1,56.6-70.7,76.4-82.3c18.4-10.7,32-13.3,36.1-13.8c10.2-22.5,31.3-16.1,31.5-16
			c10.3,3.1,18.2,10,22.7,20c3.2,7,3.7,13.2,3.7,14.2c1,6.1,9.1,15.5,41.6,26c27.1,8.8,55.6,26.6,55.9,26.8l-2.1,3.4
			c-0.3-0.2-28.4-17.7-55-26.4c-28.1-9.2-42.6-18.8-44.3-29.3l0-0.2c0-1-1.4-24.1-23.6-30.7c-0.8-0.2-18.3-5.4-26.9,14.6
			c-0.1,0.1-0.1,0.3-0.1,0.5l0.2,0.9l-1.9,0.1c-0.1,0-14.9,1.4-35.8,13.6c-19.3,11.3-47.9,34.5-74.6,80.6
			c-0.8,1.6-12,23.8-26.4,32.7c-14.3,8.8-26,8.7-35.8-0.2l-0.1-0.1c-0.1-0.1-9.9-9.7-17.4-14.2c-0.3-0.2-0.7-0.2-1,0
			c-1.8,1.1-5.5,3.7-6.9,8c-1.4,4.6-2.7,10.6-3.8,16.2c-2,10.1,1.2,19.6,8.4,24.6c5.9,4.1,13.6,7.8,23.1,11.1
			c11.1,2.7,28.2,6.7,34.6,7.8c0-0.4,0.1-0.8,0.3-1.2c1.3-4.1,6.6-7.9,15.7-11.2l0.2-0.1l0.2,0c0.1,0,9.1-1.6,18.2-3.8
			c17.1-4.2,19.1-7,19.2-7.3l0.1,3.4c0,0,0,0,0,0c-4.3,1.3-10.5,4.8-20.7,8.4c0,0,0,0,0,0c-8.6,2-14.5,3.1-15.8,3.3
			c-9.9,3.6-12.4,6.8-13.1,8.4c-0.3,0.8-0.2,1.3-0.1,1.4L154.7,250.9z M151.9,247.6"/>
	</g>
	<g>
		<path class="st0" d="M96,199.7c-2.9,0-4.9-0.3-5.3-0.4l-4-0.7l2.1-11.4l4,0.7c0,0,0,0,0,0c0,0,1.2,0.2,3.1,0.2
			c3.1,0,7.7-0.5,12.1-3.1l3.5-2l5.8,10l-3.5,2C107.2,198.9,100.5,199.7,96,199.7z"/>
		<path d="M96,195.6c-2.6,0-4.4-0.3-4.5-0.3l0.6-3.4c0.1,0,9.4,1.6,18-3.3l1.7,3C105.9,195,99.9,195.6,96,195.6z"/>
	</g>
	<g>
		<path class="st0" d="M90.1,205.5c-0.4,0-0.9-0.1-1.3-0.2c-4.4-1.1-6-6.9-4.1-14.4c1.3-5.3,4.4-10.9,9.1-10.9
			c0.4,0,0.9,0.1,1.3,0.2c4.4,1.1,6,6.9,4.1,14.4C97.9,199.9,94.8,205.5,90.1,205.5C90.1,205.5,90.1,205.5,90.1,205.5z"/>
		<ellipse transform="matrix(0.2439 -0.9698 0.9698 0.2439 -117.525 234.9248)" cx="91.9" cy="192.8" rx="8.9" ry="3.5"/>
		<path class="st0" d="M90.1,207.3c-0.6,0-1.2-0.1-1.8-0.2c-5.5-1.4-7.6-7.8-5.4-16.5c1.5-5.9,5.1-12.2,10.8-12.2
			c0.6,0,1.2,0.1,1.8,0.2c5.5,1.4,7.6,7.8,5.4,16.5C99.4,201,95.8,207.3,90.1,207.3z"/>
		<path d="M90.1,203.2c-0.3,0-0.5,0-0.8-0.1c-3.5-0.9-3.7-6.6-2.5-11.6c1.2-5,4.2-9.9,7.6-9c3.5,0.9,3.7,6.6,2.5,11.6
			C95.8,198.7,93.2,203.2,90.1,203.2z M93.6,186c-0.7,0.3-2.4,2.4-3.4,6.5c-1,4-0.5,6.7,0,7.3c0.7-0.3,2.4-2.4,3.4-6.5
			C94.6,189.2,94.1,186.6,93.6,186z"/>
	</g>
	<path class="st0" d="M370.8,118.2c-5.4,0-14.2-2-25-11.4c-22.7-19.6-38.7-30.6-47.5-32.6c-11.9-2.7-15.5-4.9-16.1-5.3l-1.1-0.7
		l-0.5-1.3c-0.5-1.3-0.3-2.8,0.6-4c1.5-2.2,4.5-3,11.2-3c1.2,0,2.5,0,3.9,0.1c12.8,0.5,40.9,10.2,42,10.7l2.4,0.9l0.7,7.4l4.4,8.6
		l3.5,2.3l9,5.2l7.7,3.9l16,4.9l4.4,6.5l-2.1,2.4C381.3,116.2,376.3,118.2,370.8,118.2C370.8,118.2,370.8,118.2,370.8,118.2z"/>
	<path d="M284.4,65.5c0,0,3.1,2,14.8,4.7c11.7,2.7,32.1,18.7,49.2,33.5c17.1,14.8,29,10.7,32.8,6.4l-1.8-2.7l-14.9-4.6l-8.1-4.1
		l-9.2-5.3l-4.5-2.9l-5.3-10.3l-0.5-5.6c0,0-28.5-9.9-40.9-10.4C283.7,63.6,284.4,65.5,284.4,65.5z"/>
	<path class="st0" d="M319.1,74.1l-0.7-1.7c-2.1-5.2-6.2-11.3-8.7-11.6c-0.1,0-0.2,0-0.3,0c-2.5,0-5.4,4.3-6.3,6.7l-1,2.5h-14.2
		l-8.6-2.4l7.5-15.8l4.2-5.1l11.7-2.6h5.4l5.9,1.5l9.3,3.3l6.2,5.6l5.9,5.6l5.6,12.5l-4.8,7.5L319.1,74.1z"/>
	<path d="M290.2,53.9L285,64.9l3.4,0.9h6.5h4.5c0,0,4.2-9.9,10.9-9.1c6.6,0.9,11.9,14.2,11.9,14.2l12.2,4.3l1.9-3l-4.4-9.7l-5.3-5.1
		l-5.5-5l-8.4-3l-5.2-1.3h-4.4l-9.9,2.2L290.2,53.9z"/>
	<g>
		<path class="st0" d="M283.6,232.6c-6.9-25.5,8.5-51.5,17.6-67c0.7-1.2,1.4-2.4,2.1-3.5c10.7-18.5,14.3-34.5,12.1-53.5
			c-2.1-18.2-19.3-35.7-19.5-35.9l-2.8-2.9l2.8-2.9l5.7-5.7l2.9,2.9c0.8,0.8,20.3,20.5,22.9,43.1c2.5,21.8-1.6,40-13.7,61
			c-0.6,1.1-1.4,2.3-2.1,3.6c-8.2,13.9-21.9,37.1-16.4,57.7l1.1,3.9l-11.7,3.2L283.6,232.6z"/>
		<path d="M287.5,231.5c-6.4-23.9,8.4-48.9,17.2-63.9c0.7-1.3,1.4-2.4,2.1-3.5c11.2-19.3,15-36,12.6-56
			C317.1,88.4,299,70,298.8,69.9l2.9-2.9c0.8,0.8,19.3,19.5,21.8,40.7c2.4,20.9-1.5,38.3-13.2,58.5c-0.6,1.1-1.3,2.3-2.1,3.6
			c-8.5,14.4-22.8,38.5-16.8,60.8L287.5,231.5z"/>
	</g>
	<g>
		<path class="st0" d="M332.4,292.8c-4.6-4.4-10.1-12.8-21.1-29.5l-0.3-0.5c-1.8-2.7-3.7-5.6-5.8-8.8c-13.2-20-31.3-24.2-50.4-28.5
			l-1.9-0.4c-20.8-4.8-48.5-21.6-49.7-22.4l-3.5-2.1l6.3-10.4l3.5,2.1c0.3,0.2,27.3,16.5,46.1,20.9l1.8,0.4
			c19.6,4.5,41.9,9.6,57.8,33.7c2.2,3.4,4.3,6.5,6.2,9.3c10.2,15.4,15.8,23.9,19.4,27.4l2.9,2.8l-8.4,8.8L332.4,292.8z"/>
		<path d="M335.2,289.9c-4.3-4.1-9.7-12.3-20.5-28.8c-1.9-2.9-3.9-6-6.2-9.3c-14.1-21.4-33.8-25.9-52.9-30.3l-1.9-0.4
			c-20.1-4.6-47.3-21.2-48.5-21.9l2.1-3.5c0.3,0.2,27.8,16.9,47.3,21.4l1.9,0.4c19.8,4.6,40.3,9.3,55.3,32c2.2,3.4,4.3,6.5,6.2,9.3
			c10.7,16.2,16,24.3,19.9,28.1L335.2,289.9z"/>
	</g>
	<g>
		<path class="st0" d="M154.6,230.4l1.9-3.6c0.5-1,5.5-9.8,20.4-16.8l0.1,0c14.6-6.9,27.1-17.5,36.1-30.8
			c6.2-9.1,11.8-18.9,16.2-27.2c-0.1,0-0.1,0-0.2,0c-1.6,0-3.2-0.3-5-0.6c-2.1-0.3-4.2-0.7-6.3-0.7c-4.5,0-7.7,1.6-10.5,5.2
			c-5.3,6.9-11.6,12.4-18.7,16.2c-9.9,5.4-18.8,8.4-26.5,8.9l-4,0.3l1.1-10.6l2.1-1.7c5.8-0.4,13.2-2.9,21.4-7.4
			c5.6-3,10.6-7.4,14.9-13c5.1-6.6,11.9-10,20.1-10c3.2,0,6,0.5,8.2,0.8c1.1,0.2,2.4,0.4,3,0.4c2.1-0.1,7-3.4,10.1-6.2l8.3-7.7
			l6.4,4.8l-5.2,10.2c-5.5,10.8-14.6,28.9-25.6,45c-10.2,15.1-24.4,27.2-41,35l-0.1,0c-10.9,5.1-14.7,11.3-14.9,11.6l-1.9,3.5
			L154.6,230.4z"/>
		<path d="M163.6,230.6l-3.6-1.9c0.2-0.3,4.6-8.5,18.6-15l0.1,0c15.3-7.2,28.3-18.3,37.7-32.2c8.4-12.4,15.7-26,21.1-36.5
			c-2.5,1.5-5.4,2.8-8,2.9c-1.3,0.1-2.9-0.2-4.8-0.5c-6-1-14.1-2.3-20.6,6.1c-5,6.5-10.8,11.6-17.4,15.2c-9.4,5.1-17.8,8-24.8,8.4
			l-0.3-4c6.4-0.4,14.3-3.2,23.1-7.9c6.1-3.3,11.5-8,16.1-14.1c8-10.4,18.3-8.6,24.5-7.6c1.6,0.3,3,0.5,3.9,0.5
			c4.1-0.2,10.5-5.3,12.6-7.3l8.3-7.7l-5.2,10.2c-5.4,10.7-14.5,28.7-25.3,44.6c-9.8,14.5-23.4,26.1-39.3,33.6l-0.1,0
			C167.7,223.2,163.6,230.5,163.6,230.6z"/>
	</g>
	<path class="st0" d="M129.5,248.6l-4.5-0.9l-0.7-0.5c-4.6-3.3-5.8-6.9-6-9.2c-0.3-2.9,0.8-5.8,3-8.1c2.7-2.8,6.3-3.8,8.7-4.2
		c1.8-0.3,3.5-0.8,5.5-1.3c6.4-1.6,15.1-3.7,34.4-5.1c16.8-1.2,24.9-1.4,28.7-1.4c1.1,0,2.6,0,3.3,0.1l1.4,0.2l5.4,6.1l-8.7,6.7
		l-11.5,3.9l-16.2,4.1h-9.3l-8.9,6.1l-4.5,7.9L129.5,248.6z"/>
	<path d="M201.3,222.1c0,0-3.8-0.6-31.1,1.3c-25,1.7-31.6,4.8-39.4,6.3c-2.4,0.5-4.8,1.3-6.5,3.1c-2.3,2.4-3.5,6.8,2.5,11.2l3.6,0.7
		l17.3,3.7l3.5-6.1l10.7-7.3h10l15.6-3.9l10.7-3.6l4.7-3.6L201.3,222.1z"/>
	<g>
		<path class="st0" d="M265.6,323.4l2-3.5c0,0,0.5-1,1-4.4l0.6-4l12,1.8l-0.6,4c-0.6,4-1.4,6.7-2.5,8.7l-2,3.5L265.6,323.4z"/>
		<path d="M274.7,323.9l-3.5-2c0.3-0.5,0.9-2,1.5-5.8l4,0.6C276.1,320.1,275.5,322.4,274.7,323.9z"/>
	</g>
	<g>
		<path class="st0" d="M269.3,310.3c-2-20.8-9.8-36.2-23-45.6c-13.2-9.4-29.8-11.4-41.4-11.4c-11.9,0-20.7,2-20.8,2l-3.9,0.9
			l-0.9-3.9l-1.9-7.9l3.9-0.9c1.1-0.3,10.7-2.4,23.7-2.4c13.3,0,32.4,2.4,48.3,13.7c16.2,11.5,25.6,29.8,28,54.3l0.4,4l-12.1,1.2
			L269.3,310.3z"/>
		<path d="M273.3,309.9c-2.2-22-10.5-38.3-24.6-48.5c-26.5-18.9-65.1-10.1-65.5-10l-0.9-3.9c1.7-0.4,40.8-9.4,68.8,10.6
			c15.2,10.8,24,28.1,26.3,51.4L273.3,309.9z"/>
	</g>
	<g>
		<path class="st0" d="M181.4,258.8c-1.1,0-2.3-0.3-3.3-0.9c-10.3-5.9-17.6-17.8-18.4-19.1l-2.1-3.5l9.9-6l2.1,3.5
			c0,0,1.6,2.6,4.1,5.7c-0.4-6.9,1.2-9.8,2.8-11.4l2.8-2.9l8.3,8.1l-2.3,2.4c-0.2,1.8,0.2,7.7,2.4,15.7c0.7,2.6-0.2,5.3-2.3,7
			C184.2,258.3,182.8,258.8,181.4,258.8z"/>
		<path d="M181.4,254.7c-0.4,0-0.9-0.1-1.2-0.3c-9.6-5.5-16.7-17.2-17-17.7l3-1.8c0.1,0.1,5.9,9.7,13.7,15.2
			c-1.6-6.3-3.6-16.8-0.4-20.1l2.5,2.4c-1.5,1.5-0.6,10.1,1.9,19.2c0.3,1-0.1,2.1-0.9,2.7C182.4,254.6,181.9,254.7,181.4,254.7z"/>
	</g>
	<g>
		<path class="st0" d="M164.6,267.2c-1.1,0-2.3-0.3-3.3-0.9c-10.3-5.9-17.6-17.8-18.4-19.1l-2.1-3.5l9.9-6l2.1,3.5
			c0,0,1.1,1.8,3,4.3c-1.1-9,1.3-11.5,2.3-12.5l2.8-2.9l8.3,8.1l-2.2,2.3c-0.2,2.7,1.3,11,3.8,18c0.9,2.6,0.1,5.4-2,7.2
			C167.6,266.6,166.1,267.2,164.6,267.2z"/>
		<path d="M164.6,263.1c-0.4,0-0.9-0.1-1.2-0.3c-9.6-5.5-16.7-17.2-17-17.7l3-1.8c0.1,0.1,5.8,9.6,13.5,15c-1.7-5.7-5.3-19-1.8-22.5
			l2.5,2.4c-1.6,1.6,0.6,13.5,3.5,21.6c0.3,1,0.1,2.1-0.8,2.7C165.7,262.9,165.1,263.1,164.6,263.1z M163.6,261
			C163.6,261,163.6,261,163.6,261C163.6,261,163.6,261,163.6,261z"/>
	</g>
	<g>
		<path class="st0" d="M289.9,330.3c-0.6,0-1.3-0.1-1.9-0.3c-14.6-4.3-21.2-13.9-23.4-17.8c-1.3-2.4-0.9-5.3,0.9-7.2
			c1.1-1.2,2.7-1.9,4.4-1.9c1,0,1.9,0.2,2.8,0.7c0.9,0.4,4.6,1.9,16.5,1.9c2.6,0,5.3-0.1,7.3-0.2l2.4-0.2l1.8,1.6
			c4.3,3.9,1.1,8.9-2,13.8c-0.6,1-2.1,3.3-2.5,4.1c-0.3,1.8-1.3,3.3-2.8,4.3C292.4,329.9,291.2,330.3,289.9,330.3z M287.2,317.5
			c0-0.1,0.1-0.1,0.1-0.2c-0.2,0-0.4,0-0.6,0C286.9,317.3,287.1,317.4,287.2,317.5z"/>
		<path d="M289.9,326.3c-0.2,0-0.5,0-0.7-0.1c-13.1-3.9-19.1-12.4-21-15.9c-0.4-0.8-0.3-1.8,0.3-2.4c0.6-0.7,1.6-0.8,2.4-0.4
			c5.4,2.8,20.5,2.5,25.9,2.1l0.7,0l0.5,0.5c1.8,1.6,0.1,4.3-2.7,8.6c-1.2,1.8-2.9,4.6-3,5.5c-0.1,0.7-0.5,1.4-1.1,1.8
			C290.8,326.1,290.4,326.3,289.9,326.3z M273.5,311.9c2.7,3.4,7.6,8,15.7,10.6c0.5-1.4,1.6-3.3,3.3-5.8c0.7-1.1,1.6-2.5,2.2-3.6
			C290.2,313.3,280.2,313.5,273.5,311.9z M269.3,310.5C269.3,310.5,269.3,310.5,269.3,310.5C269.3,310.5,269.3,310.5,269.3,310.5z"
			/>
	</g>
	<g>
		<path class="st0" d="M280.3,341.7c-0.7,0-1.4-0.1-2.1-0.3c-10.1-3-17.7-8.9-22.5-17.6c-1.3-2.4-0.9-5.3,0.9-7.2
			c1.1-1.2,2.7-1.9,4.4-1.9c1,0,1.9,0.2,2.8,0.7c2.4,1.2,6.7,1.9,12.2,1.9c2.9,0,5-0.2,5.1-0.2l2.5-0.2l1.9,1.7
			c3.1,2.8,2.9,7.3,1.7,16.3c-0.1,0.5-0.1,0.9-0.1,1.2c-0.2,1.8-1.2,3.4-2.8,4.5C282.8,341.5,281.3,341.7,280.3,341.7z"/>
		<path d="M280.3,337.6c-0.3,0-0.7,0-0.9-0.1c-9.1-2.7-15.9-8-20.2-15.7c-0.4-0.8-0.3-1.8,0.3-2.4c0.6-0.7,1.6-0.8,2.4-0.4
			c6.5,3.3,19.4,2.1,19.5,2.1l0.8-0.1l0.6,0.5c1.4,1.3,1.5,4.3,0.4,12.8c-0.1,0.5-0.1,0.9-0.2,1.2c-0.1,0.6-0.4,1.2-1,1.6
			C281.5,337.5,280.9,337.6,280.3,337.6z M264.5,323.6c3.7,4.9,8.8,8.3,15.3,10.4c0,0,0,0,0-0.1c0.6-4.7,0.8-7.8,0.7-9.2
			C277.5,324.9,270.4,325.1,264.5,323.6z M280.3,324C280.3,324,280.3,324,280.3,324C280.3,324,280.3,324,280.3,324z"/>
	</g>
	<g>
		<path class="st0" d="M278.2,328l1.7-8.4l7.5-1l1.4,1.1c3.3,2.7,4.6,3.7,4.6,5.9c0,2-1.8,4.5-1.8,4.5c-0.4,0.5-0.8,1-6.6,4.6
			l-5.2,3.2L278.2,328z"/>
		<path d="M283.3,323.3l-1,4.8l0.5,3.2c0,0,5.2-3.2,5.5-3.6c0.4-0.4,1-1.8,1-2c0-0.2-3.1-2.7-3.1-2.7L283.3,323.3z"/>
	</g>
	<g>
		<path class="st0" d="M158.4,250.8l3.7-1.7c5.6-2.6,13.2-4.3,14-4.5l3.9-0.9l2.6,11.9l-4,0.9c-0.1,0-7.1,1.6-11.5,3.7l-3.7,1.7
			L158.4,250.8z"/>
		<path d="M165.5,256.4l-1.7-3.7c5.3-2.5,12.9-4.2,13.2-4.2l0.9,3.9C177.8,252.5,170.4,254.1,165.5,256.4z"/>
	</g>
	<g>
		<path class="st0" d="M279.3,315.6c-2-2.2-3.7-5.9-5.2-11.3c-4.7-16.9-2.7-35,5.8-50.8c1.2-2.2,1.9-3.5,1.9-3.5l2-3.5l10.4,6
			l-1.9,3.6c-0.2,0.3-0.8,1.4-1.7,3.1c-7,13-8.7,27.9-4.8,41.8c1.2,4.2,2.2,6.1,2.5,6.4l2.7,3l-3,2.7l-6,5.4L279.3,315.6z"/>
		<path d="M282.3,312.8c-1.9-2.1-3.4-6.4-4.3-9.7c-4.4-15.9-2.5-32.9,5.4-47.8c1.1-2.1,1.8-3.3,1.9-3.4l3.5,2c0,0-0.7,1.3-1.8,3.3
			c-7.4,14-9.3,29.9-5.1,44.8c1.1,3.9,2.3,6.9,3.4,8L282.3,312.8z"/>
	</g>
	<g>
		<path class="st0" d="M284.3,298.8c-1.1-1.9-1.8-3.8-2.2-5.8c-0.3-1.9-0.4-3.9-0.2-5.8c0.2-1.9,0.6-3.7,1.1-5.4
			c0.6-2,1.4-3.6,2.2-5.1l2-3.3l8.2,4.3l-1.3,3.5c-0.2,0.5-0.4,1.1-0.5,1.6l0,0.2c-0.2,0.6-0.3,1.1-0.5,1.7
			c-0.3,1.3-0.5,2.5-0.6,3.6c-0.1,1-0.1,2,0.1,3.2l0.1,0.9c0,0.1,0,0.1,0,0.2c0.1,0.2,0.1,0.4,0.2,0.6l0,0.1l0,0.1
			c0,0,0.1,0.3,0.2,0.4c0.1,0.3,0.3,0.6,0.4,1.1l1,3.2l-8.3,4.4L284.3,298.8z"/>
		<path d="M290.4,279.6c-0.2,0.6-0.5,1.3-0.7,2c-0.2,0.7-0.4,1.4-0.6,2c-0.3,1.4-0.6,2.8-0.7,4.1c-0.1,1.4-0.1,2.8,0.1,4.1l0.2,1
			c0.1,0.3,0.2,0.7,0.3,1c0.1,0.7,0.5,1.3,0.7,1.9l-1.9,1c-0.8-1.4-1.4-2.9-1.7-4.5c-0.3-1.6-0.3-3.2-0.2-4.7c0.2-1.6,0.5-3.1,1-4.6
			c0.5-1.5,1.1-2.9,1.9-4.3L290.4,279.6z"/>
	</g>
	<g>
		<path class="st0" d="M216.3,168.5c-2.3,0-4-0.3-4.3-0.4l-5.2-1l0.8-5.2c1.2-7.2,4.1-11.9,8.6-13.8c1.4-0.6,2.9-0.9,4.5-0.9
			c4.3,0,7.8,2.2,8.4,2.7l2.3,1.6l0.1,2.7c0.2,5.7-2.3,9.1-4.4,10.8C224.5,167.3,220.8,168.5,216.3,168.5z"/>
		<path d="M216.3,164.4c-1.9,0-3.4-0.3-3.5-0.3l-1.4-0.3l0.2-1.4c0.9-5.7,3-9.4,6.2-10.7c4.3-1.8,8.8,1.2,9,1.4l0.6,0.4l0,0.7
			c0.1,3.3-0.9,5.9-2.9,7.6C222.2,164,218.8,164.4,216.3,164.4z M214.8,161.5c2,0.2,5.7,0.2,7.9-1.8c1.2-1,1.9-2.5,1.9-4.6
			c-1.1-0.6-3.5-1.6-5.6-0.7C217,155.3,215.6,157.7,214.8,161.5z"/>
	</g>
	<g>
		<path class="st0" d="M275.5,342.3c-0.6,0-1.1-0.1-1.7-0.3c-2.4-0.8-3.7-3.2-3.7-6.8l0-3.8l5.8-0.4l3.7,0.6l3.1,6.4l-2.2,2
			C279.7,340.8,277.8,342.3,275.5,342.3C275.5,342.3,275.5,342.3,275.5,342.3z"/>
		<path d="M274.2,335.2c0,0,0,2.7,1,3c1,0.3,2.5-1.1,2.5-1.1l-0.9-1.8l-1.2-0.2L274.2,335.2z"/>
	</g>
	<g>
		<path class="st0" d="M270.4,326.9l-2.6-10.6l1.1-0.3l-0.6-1.5l7.9-3l2.5,1.4c3.5,1.9,4.5,2.8,5.1,3.4c2.5,2.7,2.4,6.7-0.3,9.7
			l-2.2,2.6L270.4,326.9z"/>
		<path d="M279.6,324.4l-6-1l-1-4l1.6-0.4l-0.8-2l2.3-0.9l0.8,0.5c2.2,1.3,3.6,2.1,4.1,2.7c1,1.1,0.9,2.9-0.4,4.3L279.6,324.4z"/>
	</g>
	<path class="st4" d="M134.4,241.8l-8.2-5.9l11-3.9c0,0,7.9-0.7,9.2-0.7s12.6-0.6,12.6-0.6l4.8-4.6l6-4.8l8.1-5.3l14.3-7.8l13.2-9.8
		c0,0,29.7-38.4,34.2-55.9l-4.8,2.3l-7.3,0.7l-10.1-0.4l-6,0.7l-6.3,2.4l-3.8,4.4l-1.9,3l-3.8,4.6l-7.9,4.3l-14.9,8.6l-11,2.3
		L151.1,186c0,0-20.3,21.3-39.8,4.9l-18.6-14.5l-6.6,2.9l-3.7,11.6c0,0-10.5,23.2,1.3,33.9C95.6,235.4,124.8,245.1,134.4,241.8z"/>
	<path class="st5" d="M217.1,154.1c0,0-4.8,6.9-3.8,8.1s3.3,0.8,3.3,0.8l6.6-2C223.2,161,231.5,150.9,217.1,154.1z"/>
	<path class="st6" d="M165.6,254.3l10.3-3.4l-3.5-4.9l-4.6-6.8l-3.8-4.2c0,0-2.8,4.5-2.4,4.9c0.4,0.4,1.1,13.6,1.1,13.6L165.6,254.3
		z"/>
	<path class="st6" d="M181.9,250.2c0,0.3,86.2-20.9,92.3,59.8l5,1.4l3.2-0.2l-2.5-5.3c0,0-6-41.5,7.7-49.5c0,0-25.1-44.7-85.8-30.3
		l-22.4,3.9C179.4,230,181.9,249.4,181.9,250.2z"/>
	<path class="st7" d="M336.8,288.2l-19.5-25.1c0,0-11.5-27.9-27.9-31l-1.2-7.1c0,0-6.1-22.4,22.5-63.5c0,0,33.7-52-9.6-90.8l9.6-3.8
		l8.4,8.3l11.6,9.5l14.4,12.7l13.1,6.5l15.6,3.2l20.5,6.3l39.5,20.2c0,0,19.5,111-32.8,208.9l-2.7,1.9c0,0-2-26.3-17.8-49.7
		c0,0-16-21.2-17.3-40.8l-7.3,5.6l-8.7,13.5L336.8,288.2z"/>
	<path class="st8" d="M284.1,331.3l-4.7,6.3l-0.5,4.8c0,0,9.2,8.4,20.3,0c11.1-8.4,16.9-14.5,16.9-14.5l19.9-38.7l-20.3-31.3
		l-13.4-17.9c0,0-7.7-7.2-22-13.3c-14.3-6.1-30.1-8.5-30.1-8.5l-16.8-6.4l-15.7-8.7l-10.5-5.6c0,0-12,10.1-25.9,16.6
		c0,0-21,12.3-12.5,13.6s23.4-2.6,23.4-2.6l19.3-0.8l23.4-0.1c0,0,55.4-0.9,64,70.2C298.8,294.4,306.6,307.8,284.1,331.3z"/>
	<path class="st9" d="M242.6,140.1c0,0-21.2,42.4-35.3,55.6l5.8,5l6.2,3.3l27.6,12.9l20.6,5.3L289,230l-1.4-11.1
		c0,0-0.2-20.1,17.8-49.5c0,0,39.8-58.2-4.3-100.2c0,0-14.3-6.2-21.8-4c-7.5,2.1-13,4.8-13,4.8l-14.8,5.6c0,0-45,22.6-75.7,73.8
		l-11,22l-3.2,4l6.7-0.6l10.5-4.4c0,0,18.6-9.9,21.5-15.5c3-5.6,12.2-11.1,14.7-10c2.5,1.1,11.1,1.6,11.1,1.6l10.5-3.2L242.6,140.1z
		"/>
	<path class="st10" d="M285.8,255.5c0,0-7.7,12.4-8.5,22c-0.8,9.6,3.2,23.2,3.2,23.2l1,8.8c0,0,3.8,1.7,5,1.9s9.7,0,9.7,0
		S305.3,296.9,285.8,255.5z"/>
	<path class="st11" d="M167.1,235c0,0-1.9,4.3,0.3,5.6c2.2,1.2,12,11.4,12,11.4l1.6-1l-0.5-8.5l-1.1-8l-0.9-3.1c0,0-7-0.1-7.2,0
		C171.1,231.4,167.1,235,167.1,235z"/>
	<path class="st11" d="M154.7,238.2c0,0-9,8.4,2,16.6c0,0,5.4,8.2,7.1,4.8l-2.6-24.6L154.7,238.2z"/>
	<path class="st11" d="M271.2,311.4c0,0,16.5,15.7,19.3,13c0,0,6.9-12.4,4.3-13C292,310.7,270.5,310.8,271.2,311.4z"/>
	<path class="st11" d="M262.6,322l13.4,0.9h4.9l1.7,3v4.2l-2.2,3.9l-1.5,2.2l-11-6.4C267.9,329.9,262.7,324.8,262.6,322z"/>
	<polygon class="st4" points="307.9,52.6 294.4,64.7 318.4,72.4 326.4,72.4 321.4,54.4 305,51.9 	"/>
	<path class="st12" d="M81.8,220.2c0,0,17,8.8,32.2,1c0,0-17.4-0.9-12.2-8c0,0,28.8,2.1,46.6-5.8c0,0-14.9,0.9-7.5-4.2
		c0,0,19.8-3.3,33.9-17.5c0,0-32,8.3-16.4-5.7l-5.8,4.9l-15.3,10.7c0,0-18.8,4.5-27.4-6.1l-14.7-12.7l-5.4,1.6l-4.7,4.7l-3.1,9.6
		l-1.9,12.4C79.9,205.2,78.5,218.1,81.8,220.2z"/>
	<path class="st13" d="M215.3,144.8c0,0,19.6-2.7,29.4-16.8c0,0-22.2,7.2-14.5-1.1c6.3-4.5,19.9-5.3,25.8-17.4
		c0,0-24.1,13.5-20.9,4.7c2.6-7.3,19-13.9,29.7-27.9c0,0-31.3,11.6-16.1-8.2l-2.2-0.9l-2.8,3l-8.4,6.8c0,0-38.4,27.6-56.6,60.4
		l-10.3,17.1l-4.6,8.4l3,1.5l3.8-1.8c0,0,29.1-10.1,31.9-21.3C202.5,151.2,213.2,144.6,215.3,144.8z"/>
	<path class="st14" d="M162.4,247.6c0,0,5.3-3.3,8.4-3l-5.7-6.9l-1.5-2.8l-2,4.9l0,4.8L162.4,247.6z"/>
	<path class="st14" d="M180.2,241.3c0,0,0.2-0.1,0.6-0.2c6.4-1.7,61.8-15.1,101,22l2.3-6.7l2.4-1.7c0,0-21.2-38-84.1-28.8l-20.1-0.1
		l-4.4,4.7l1.5,6.3l1,4.4"/>
	<path class="st15" d="M297.8,311.4c0,0,18.9-13.4,14.4-59.4l5.1,11.1l19.5,25.1L323,312.8l-12.6,21.6c0,0-23.3,26.8-32.1,3.2
		l4.6-4.8l6.8-6.6l3.2-5.5L297.8,311.4z"/>
	<path class="st16" d="M173.5,234.2c0,0,0.7,11.3,6.7,17.9c0,0-13.6-11.5-14-16.3L173.5,234.2z"/>
	<path class="st16" d="M156.8,240.1c0,0,0.7,12.3,4.6,18.9c0,0-10.6-8.9-11-13.6L156.8,240.1z"/>
	<path class="st16" d="M272.7,313.4c0,0,17.4,8.1,22,4l-4.7,6.2l-3.8-0.8l-12.9-9.4H272.7z"/>
	<path class="st16" d="M262.5,324.7c0,0,17.4,8.1,22,4l-4.7,6.2l-3.8-0.8l-12.9-9.4H262.5z"/>
	<path class="st17" d="M292.9,274.2c0,0-13.3,14.1,2.7,36.6l1.6-0.3l2.2-11.5L292.9,274.2z"/>
	<path class="st18" d="M289.3,263.4c0,0-7.6,7-7,23.1c0.2,6.4,2.6,14.8,5.8,24l-3.1,0.4l-2.6-1.4c0,0-12.7-28.8,4.1-53.8
		L289.3,263.4z"/>
	<path class="st19" d="M358.3,189.3c0,0-13.9,54.5-34.2,80.8l6.6,12.3l4.7,4l26.2-32.4L358.3,189.3z"/>
	<path class="st20" d="M321,128.9c0,0,14.9,24.8,45.5,22.3c0,0-22.3-15.4-8.2-20.2c0,0,18.8,23.5,42.2,20.2c0,0-20.9-11.3-6.8-17.6
		c0,0,18.2,21.6,41.9,19.8l0-19.2l-9.3-4.4l-15.4-9.8l-37.1-12.9l-27-11.9l-26.5-21.2l-10.4-2.3l-5.4-1.7
		C304.4,70,328.3,104.1,321,128.9z"/>
	<g>
		<path d="M397.6,347.1c0-0.3-2.6-27.1-24.5-60.9c-9.5-14.7-15.2-35.6-16.7-62.1c-1.2-19.7,0.5-35.3,0.5-35.4l4,0.4
			c-0.1,0.6-6.3,61.2,15.6,94.9c22.6,34.7,25.1,61.6,25.2,62.8L397.6,347.1z"/>
	</g>
	<g>
		<path d="M288.8,348.9c-0.9,0-1.7-0.1-2.6-0.3c-4.1-0.9-7.7-4-10.6-9.2l-0.9-1.6l1.5-1.1c0.1-0.1,13.9-10.2,19.4-25.9
			c5.5-15.7-8.1-49.9-8.3-50.2l-0.1-0.2c0-0.1-3.4-10.5-15.5-19.9c-11.2-8.7-32.5-18.3-70.1-14.5l-0.4-4
			c39.1-3.9,61.4,6.3,73.2,15.5c12.5,9.8,16.3,20.5,16.6,21.6c0.9,2.2,14.2,36.1,8.3,53c-4.9,14-15.5,23.6-19.4,26.7
			c2.1,3.3,4.4,5.2,7,5.7c5.2,1.1,11.1-3.2,16.3-7l1.2-0.9c7.9-5.8,15.3-20.2,23.8-36.8c1.5-3,3.2-6.2,4.8-9.3
			c10.8-20.8,27.5-38.9,27.6-39.1l3,2.7c-0.2,0.2-16.4,17.9-27,38.2c-1.6,3.2-3.2,6.3-4.8,9.3c-8.7,17.1-16.3,31.8-25,38.2l-1.2,0.9
			C300.8,344.5,294.9,348.9,288.8,348.9z"/>
	</g>
	<g>
		<path d="M154.7,250.9l-4.5-0.2c-3.5,0-32.3-6.9-38-8.3l-0.2-0.1c-9.9-3.4-18-7.3-24.2-11.6c-8.6-6-12.4-17-10-28.7
			c1.2-5.8,2.4-11.8,3.9-16.6c1.8-6,7.2-9.7,10.1-11c0.8-0.4,1.7-0.3,2.5,0.1c8,4.3,18.6,14.7,19.3,15.4c8.5,7.8,18,7.7,30.9-0.3
			c13.6-8.4,24.9-30.9,25-31.1l0.1-0.1c27.2-47.1,56.6-70.7,76.4-82.3c18.4-10.7,32-13.3,36.1-13.8c10.2-22.5,31.3-16.1,31.5-16
			c10.3,3.1,18.2,10,22.7,20c3.2,7,3.7,13.2,3.7,14.2c1,6.1,9.1,15.5,41.6,26c27.1,8.8,55.6,26.6,55.9,26.8l-2.1,3.4
			c-0.3-0.2-28.4-17.7-55-26.4c-28.1-9.2-42.6-18.8-44.3-29.3l0-0.2c0-1-1.4-24.1-23.6-30.7c-0.8-0.2-18.3-5.4-26.9,14.6
			c-0.1,0.1-0.1,0.3-0.1,0.5l0.2,0.9l-1.9,0.1c-0.1,0-14.9,1.4-35.8,13.6c-19.3,11.3-47.9,34.5-74.6,80.6
			c-0.8,1.6-12,23.8-26.4,32.7c-14.3,8.8-26,8.7-35.8-0.2l-0.1-0.1c-0.1-0.1-9.9-9.7-17.4-14.2c-0.3-0.2-0.7-0.2-1,0
			c-1.8,1.1-5.5,3.7-6.9,8c-1.4,4.6-2.7,10.6-3.8,16.2c-2,10.1,1.2,19.6,8.4,24.6c5.9,4.1,13.6,7.8,23.1,11.1
			c11.1,2.7,28.2,6.7,34.6,7.8c0-0.4,0.1-0.8,0.3-1.2c1.3-4.1,6.6-7.9,15.7-11.2l0.2-0.1l0.2,0c0.1,0,9.1-1.6,18.2-3.8
			c17.1-4.2,19.1-7,19.2-7.3l0.1,3.4c0,0,0,0,0,0c-4.3,1.3-10.5,4.8-20.7,8.4c0,0,0,0,0,0c-8.6,2-14.5,3.1-15.8,3.3
			c-9.9,3.6-12.4,6.8-13.1,8.4c-0.3,0.8-0.2,1.3-0.1,1.4L154.7,250.9z M151.9,247.6"/>
	</g>
	<g>
		<path d="M96,195.6c-2.6,0-4.4-0.3-4.5-0.3l0.6-3.4c0.1,0,9.4,1.6,18-3.3l1.7,3C105.9,195,99.9,195.6,96,195.6z"/>
	</g>
	<g>
		<ellipse transform="matrix(0.2439 -0.9698 0.9698 0.2439 -117.525 234.9248)" cx="91.9" cy="192.8" rx="8.9" ry="3.5"/>
		<path d="M90.1,203.2c-0.3,0-0.5,0-0.8-0.1c-3.5-0.9-3.7-6.6-2.5-11.6c1.2-5,4.2-9.9,7.6-9c3.5,0.9,3.7,6.6,2.5,11.6
			C95.8,198.7,93.2,203.2,90.1,203.2z M93.6,186c-0.7,0.3-2.4,2.4-3.4,6.5c-1,4-0.5,6.7,0,7.3c0.7-0.3,2.4-2.4,3.4-6.5
			C94.6,189.2,94.1,186.6,93.6,186z"/>
	</g>
	<path d="M284.4,65.5c0,0,3.1,2,14.8,4.7c11.7,2.7,32.1,18.7,49.2,33.5c17.1,14.8,29,10.7,32.8,6.4l-1.8-2.7l-14.9-4.6l-8.1-4.1
		l-9.2-5.3l-4.5-2.9l-5.3-10.3l-0.5-5.6c0,0-28.5-9.9-40.9-10.4C283.7,63.6,284.4,65.5,284.4,65.5z"/>
	<path d="M290.2,53.9L285,64.9l3.4,0.9h6.5h4.5c0,0,4.2-9.9,10.9-9.1c6.6,0.9,11.9,14.2,11.9,14.2l12.2,4.3l1.9-3l-4.4-9.7l-5.3-5.1
		l-5.5-5l-8.4-3l-5.2-1.3h-4.4l-9.9,2.2L290.2,53.9z"/>
	<g>
		<path d="M287.5,231.5c-6.4-23.9,8.4-48.9,17.2-63.9c0.7-1.3,1.4-2.4,2.1-3.5c11.2-19.3,15-36,12.6-56
			C317.1,88.4,299,70,298.8,69.9l2.9-2.9c0.8,0.8,19.3,19.5,21.8,40.7c2.4,20.9-1.5,38.3-13.2,58.5c-0.6,1.1-1.3,2.3-2.1,3.6
			c-8.5,14.4-22.8,38.5-16.8,60.8L287.5,231.5z"/>
	</g>
	<g>
		<path d="M335.2,289.9c-4.3-4.1-9.7-12.3-20.5-28.8c-1.9-2.9-3.9-6-6.2-9.3c-14.1-21.4-33.8-25.9-52.9-30.3l-1.9-0.4
			c-20.1-4.6-47.3-21.2-48.5-21.9l2.1-3.5c0.3,0.2,27.8,16.9,47.3,21.4l1.9,0.4c19.8,4.6,40.3,9.3,55.3,32c2.2,3.4,4.3,6.5,6.2,9.3
			c10.7,16.2,16,24.3,19.9,28.1L335.2,289.9z"/>
	</g>
	<g>
		<path d="M163.6,230.6l-3.6-1.9c0.2-0.3,4.6-8.5,18.6-15l0.1,0c15.3-7.2,28.3-18.3,37.7-32.2c8.4-12.4,15.7-26,21.1-36.5
			c-2.5,1.5-5.4,2.8-8,2.9c-1.3,0.1-2.9-0.2-4.8-0.5c-6-1-14.1-2.3-20.6,6.1c-5,6.5-10.8,11.6-17.4,15.2c-9.4,5.1-17.8,8-24.8,8.4
			l-0.3-4c6.4-0.4,14.3-3.2,23.1-7.9c6.1-3.3,11.5-8,16.1-14.1c8-10.4,18.3-8.6,24.5-7.6c1.6,0.3,3,0.5,3.9,0.5
			c4.1-0.2,10.5-5.3,12.6-7.3l8.3-7.7l-5.2,10.2c-5.4,10.7-14.5,28.7-25.3,44.6c-9.8,14.5-23.4,26.1-39.3,33.6l-0.1,0
			C167.7,223.2,163.6,230.5,163.6,230.6z"/>
	</g>
	<path d="M201.3,222.1c0,0-3.8-0.6-31.1,1.3c-25,1.7-31.6,4.8-39.4,6.3c-2.4,0.5-4.8,1.3-6.5,3.1c-2.3,2.4-3.5,6.8,2.5,11.2l3.6,0.7
		l17.3,3.7l3.5-6.1l10.7-7.3h10l15.6-3.9l10.7-3.6l4.7-3.6L201.3,222.1z"/>
	<g>
		<path d="M274.7,323.9l-3.5-2c0.3-0.5,0.9-2,1.5-5.8l4,0.6C276.1,320.1,275.5,322.4,274.7,323.9z"/>
	</g>
	<g>
		<path d="M273.3,309.9c-2.2-22-10.5-38.3-24.6-48.5c-26.5-18.9-65.1-10.1-65.5-10l-0.9-3.9c1.7-0.4,40.8-9.4,68.8,10.6
			c15.2,10.8,24,28.1,26.3,51.4L273.3,309.9z"/>
	</g>
	<g>
		<path d="M181.4,254.7c-0.4,0-0.9-0.1-1.2-0.3c-9.6-5.5-16.7-17.2-17-17.7l3-1.8c0.1,0.1,5.9,9.7,13.7,15.2
			c-1.6-6.3-3.6-16.8-0.4-20.1l2.5,2.4c-1.5,1.5-0.6,10.1,1.9,19.2c0.3,1-0.1,2.1-0.9,2.7C182.4,254.6,181.9,254.7,181.4,254.7z"/>
	</g>
	<g>
		<path d="M164.6,263.1c-0.4,0-0.9-0.1-1.2-0.3c-9.6-5.5-16.7-17.2-17-17.7l3-1.8c0.1,0.1,5.8,9.6,13.5,15c-1.7-5.7-5.3-19-1.8-22.5
			l2.5,2.4c-1.6,1.6,0.6,13.5,3.5,21.6c0.3,1,0.1,2.1-0.8,2.7C165.7,262.9,165.1,263.1,164.6,263.1z M163.6,261
			C163.6,261,163.6,261,163.6,261C163.6,261,163.6,261,163.6,261z"/>
	</g>
	<g>
		<path d="M289.9,326.3c-0.2,0-0.5,0-0.7-0.1c-13.1-3.9-19.1-12.4-21-15.9c-0.4-0.8-0.3-1.8,0.3-2.4c0.6-0.7,1.6-0.8,2.4-0.4
			c5.4,2.8,20.5,2.5,25.9,2.1l0.7,0l0.5,0.5c1.8,1.6,0.1,4.3-2.7,8.6c-1.2,1.8-2.9,4.6-3,5.5c-0.1,0.7-0.5,1.4-1.1,1.8
			C290.8,326.1,290.4,326.3,289.9,326.3z M273.5,311.9c2.7,3.4,7.6,8,15.7,10.6c0.5-1.4,1.6-3.3,3.3-5.8c0.7-1.1,1.6-2.5,2.2-3.6
			C290.2,313.3,280.2,313.5,273.5,311.9z M269.3,310.5C269.3,310.5,269.3,310.5,269.3,310.5C269.3,310.5,269.3,310.5,269.3,310.5z"
			/>
	</g>
	<g>
		<path d="M280.3,337.6c-0.3,0-0.7,0-0.9-0.1c-9.1-2.7-15.9-8-20.2-15.7c-0.4-0.8-0.3-1.8,0.3-2.4c0.6-0.7,1.6-0.8,2.4-0.4
			c6.5,3.3,19.4,2.1,19.5,2.1l0.8-0.1l0.6,0.5c1.4,1.3,1.5,4.3,0.4,12.8c-0.1,0.5-0.1,0.9-0.2,1.2c-0.1,0.6-0.4,1.2-1,1.6
			C281.5,337.5,280.9,337.6,280.3,337.6z M264.5,323.6c3.7,4.9,8.8,8.3,15.3,10.4c0,0,0,0,0-0.1c0.6-4.7,0.8-7.8,0.7-9.2
			C277.5,324.9,270.4,325.1,264.5,323.6z M280.3,324C280.3,324,280.3,324,280.3,324C280.3,324,280.3,324,280.3,324z"/>
	</g>
	<g>
		<path d="M283.3,323.3l-1,4.8l0.5,3.2c0,0,5.2-3.2,5.5-3.6c0.4-0.4,1-1.8,1-2c0-0.2-3.1-2.7-3.1-2.7L283.3,323.3z"/>
	</g>
	<g>
		<path d="M165.5,256.4l-1.7-3.7c5.3-2.5,12.9-4.2,13.2-4.2l0.9,3.9C177.8,252.5,170.4,254.1,165.5,256.4z"/>
	</g>
	<g>
		<path d="M282.3,312.8c-1.9-2.1-3.4-6.4-4.3-9.7c-4.4-15.9-2.5-32.9,5.4-47.8c1.1-2.1,1.8-3.3,1.9-3.4l3.5,2c0,0-0.7,1.3-1.8,3.3
			c-7.4,14-9.3,29.9-5.1,44.8c1.1,3.9,2.3,6.9,3.4,8L282.3,312.8z"/>
	</g>
	<g>
		<path d="M290.4,279.6c-0.2,0.6-0.5,1.3-0.7,2c-0.2,0.7-0.4,1.4-0.6,2c-0.3,1.4-0.6,2.8-0.7,4.1c-0.1,1.4-0.1,2.8,0.1,4.1l0.2,1
			c0.1,0.3,0.2,0.7,0.3,1c0.1,0.7,0.5,1.3,0.7,1.9l-1.9,1c-0.8-1.4-1.4-2.9-1.7-4.5c-0.3-1.6-0.3-3.2-0.2-4.7c0.2-1.6,0.5-3.1,1-4.6
			c0.5-1.5,1.1-2.9,1.9-4.3L290.4,279.6z"/>
	</g>
	<g>
		<path d="M216.3,164.4c-1.9,0-3.4-0.3-3.5-0.3l-1.4-0.3l0.2-1.4c0.9-5.7,3-9.4,6.2-10.7c4.3-1.8,8.8,1.2,9,1.4l0.6,0.4l0,0.7
			c0.1,3.3-0.9,5.9-2.9,7.6C222.2,164,218.8,164.4,216.3,164.4z M214.8,161.5c2,0.2,5.7,0.2,7.9-1.8c1.2-1,1.9-2.5,1.9-4.6
			c-1.1-0.6-3.5-1.6-5.6-0.7C217,155.3,215.6,157.7,214.8,161.5z"/>
	</g>
	<g>
		<path d="M274.2,335.2c0,0,0,2.7,1,3c1,0.3,2.5-1.1,2.5-1.1l-0.9-1.8l-1.2-0.2L274.2,335.2z"/>
	</g>
	<g>
		<path d="M279.6,324.4l-6-1l-1-4l1.6-0.4l-0.8-2l2.3-0.9l0.8,0.5c2.2,1.3,3.6,2.1,4.1,2.7c1,1.1,0.9,2.9-0.4,4.3L279.6,324.4z"/>
	</g>
	<g>
		<g>
			<path d="M250.1,499.9l-1.3-0.7c-61.8-31.7-109.2-75.6-141-130.5c-25.4-43.9-40.9-94.9-46-151.5c-4.5-50.3,0.1-95.9,4.8-125.2
				c5.1-31.8,11.4-52.1,11.4-52.3l0.6-1.9l2-0.1c75.5-3.4,167.7-25.5,168.7-25.7l0.7-0.2l0.7,0.2c0.9,0.2,93.1,22.3,168.6,25.7
				l2,0.1l0.6,1.9c0.1,0.2,6.3,20.5,11.4,52.3c4.7,29.4,9.4,74.9,4.9,125.2c-5.1,56.6-20.5,107.6-45.9,151.5
				c-31.7,54.9-79.2,98.8-140.9,130.5L250.1,499.9z M83.1,43.3C79.4,56,59.8,129.9,67.7,216.8c7.9,87.3,46,205.9,182.5,276.6
				C386.7,422.7,424.7,304,432.6,216.6c7.8-86.9-11.8-160.6-15.5-173.4c-72.2-3.6-158.4-23.6-167-25.6
				C241.6,19.7,155.3,39.7,83.1,43.3z"/>
		</g>
		<g>
			<path class="st21" d="M250.1,499.9l-1.3-0.7c-61.8-31.7-109.2-75.6-141-130.5c-25.4-43.9-40.9-94.9-46-151.5
				c-4.5-50.3,0.1-95.9,4.8-125.2c5.1-31.8,11.4-52.1,11.4-52.3l0.6-1.9l2-0.1c75.5-3.4,167.7-25.5,168.7-25.7l0.7-0.2l0.7,0.2
				c0.9,0.2,93.1,22.3,168.6,25.7l2,0.1l0.6,1.9c0.1,0.2,6.3,20.5,11.4,52.3c4.7,29.4,9.4,74.9,4.9,125.2
				c-5.1,56.6-20.5,107.6-45.9,151.5c-31.7,54.9-79.2,98.8-140.9,130.5L250.1,499.9z M83.1,43.3C79.4,56,59.8,129.9,67.7,216.8
				c7.9,87.3,46,205.9,182.5,276.6C386.7,422.7,424.7,304,432.6,216.6c7.8-86.9-11.8-160.6-15.5-173.4
				c-72.2-3.6-158.4-23.6-167-25.6C241.6,19.7,155.3,39.7,83.1,43.3z"/>
		</g>
	</g>
	<path class="st7" d="M404.8,353.7l2.4-4.2l48.1,109.8c1.2,2.8,0.9,6-0.7,8.6c-1.7,2.6-4.5,4.1-7.6,4.1H304.6l8.3-5.5"/>
	<path class="st7" d="M97.3,357.8c-23,7.9-39.5,29.8-39.5,55.5c0,32.3,26.3,58.6,58.6,58.6h81.8l-7.8-5.2"/>
	<path d="M446.9,467.9H116.4c-30.2,0-54.6-24.4-54.6-54.6v0c0-30.2,24.4-54.6,54.6-54.6H404c2,0,3.8,1.2,4.6,3l42.9,99.1
		C453,464.2,450.5,467.9,446.9,467.9z"/>
	<g>
		<path d="M116.6,467.9c-15.4,0-28.5-5.2-39-15.4c-10.5-10.3-15.8-23.3-15.8-38.9c0-15.6,5.4-28.7,16.1-39.2
			c10.7-10.4,23.7-15.7,38.8-15.7c15,0,28.2,5,39.3,14.9c1.5,1.4,1.8,3.6,0.6,5.3l-11.3,16.4c-0.7,0.9-1.7,1.6-2.8,1.7
			c-0.2,0-0.3,0-0.5,0c-1,0-1.9-0.4-2.7-1c-4-3.5-7.7-5.9-10.9-7.2c-3.2-1.3-6.7-1.9-10.5-1.9c-7.3,0-13.2,2.4-18.1,7.3
			c-4.9,4.9-7.3,11.3-7.3,19.4c0,8.2,2.3,14.5,7,19.3c4.7,4.8,10.1,7.1,16.6,7.1c5.8,0,10.8-0.9,14.8-2.8V413c0-2.2,1.8-4,4-4h22
			c2.2,0,4,1.8,4,4v34.7c0,1-0.4,2-1,2.7C149.4,462,134.9,467.9,116.6,467.9z"/>
		<path class="st5" d="M134.9,413h22v34.7c-9.7,10.8-23.1,16.2-40.3,16.2c-14.4,0-26.4-4.8-36.1-14.3c-9.7-9.5-14.6-21.5-14.6-36
			c0-14.5,5-26.6,14.9-36.3c9.9-9.7,21.9-14.5,35.9-14.5c14,0,26.2,4.6,36.6,13.8L141.9,393c-4.4-3.8-8.4-6.5-12.1-7.9
			c-3.7-1.4-7.7-2.2-12-2.2c-8.3,0-15.3,2.8-21,8.5c-5.7,5.6-8.5,13.1-8.5,22.3c0,9.2,2.7,16.6,8.2,22.2c5.5,5.5,12,8.3,19.5,8.3
			c7.6,0,13.8-1.4,18.9-4.3V413z"/>
		<path d="M194.4,466.8c-2.2,0-4-1.8-4-4V388h-23.6c-2.2,0-4-1.8-4-4V365c0-2.2,1.8-4,4-4h77.2c2.2,0,4,1.8,4,4v18.9
			c0,2.2-1.8,4-4,4h-23.6v74.8c0,2.2-1.8,4-4,4H194.4z"/>
		<path class="st5" d="M216.2,383.9v78.9h-21.8v-78.9h-27.7V365h77.2v18.9H216.2z"/>
		<path d="M254.2,466.8c-2.2,0-4-1.8-4-4v-15c0-0.9,0.3-1.8,0.9-2.5L297,388h-41.1c-2.2,0-4-1.8-4-4V365c0-2.2,1.8-4,4-4h79.3
			c2.2,0,4,1.8,4,4v15.1c0,0.9-0.3,1.8-0.9,2.5l-45.8,57.1H336c2.2,0,4,1.8,4,4v19c0,2.2-1.8,4-4,4H254.2z"/>
		<path class="st5" d="M256,462.8V445l49.4-61.1h-49.5V365h79.3v15.1l-51,63.6H336v19H256z"/>
		<path d="M424.7,466.8c-1.6,0-3.1-1-3.7-2.4l-8-18.7h-35.6l-8,18.7c-0.6,1.5-2.1,2.4-3.7,2.4h-23.2c-1.4,0-2.6-0.7-3.4-1.8
			c-0.7-1.1-0.9-2.6-0.3-3.8l42.2-97.8c0.6-1.5,2.1-2.4,3.7-2.4h21.1c1.6,0,3.1,1,3.7,2.4l42.2,97.8c0.5,1.2,0.4,2.7-0.3,3.8
			c-0.7,1.1-2,1.8-3.4,1.8H424.7z M401.2,418.5l-6.1-14.1l-6.1,14.1H401.2z"/>
		<path class="st5" d="M424.7,462.8l-9.1-21.1h-41l-9.1,21.1h-23.2l42.2-97.8h21.1l42.2,97.8H424.7z M395.2,394.1l-12.3,28.4h24.5
			L395.2,394.1z"/>
	</g>
	
		<rect x="116.4" y="409.7" transform="matrix(-1.836970e-16 1 -1 -1.836970e-16 544.7922 296.6184)" class="st5" width="15.4" height="22"/>
</g>
</svg>
